{
  "accessors": [
    {
      "bufferView": 2,
      "componentType": 5126,
      "count": 6,
      "max": [
        489.75006103515625,
        231.11410522460938,
        -27.028287887573242
      ],
      "min": [
        262.07635498046875,
        135.015380859375,
        -52.25595474243164
      ],
      "type": "VEC3"
    },
    {
      "bufferView": 0,
      "componentType": 5125,
      "count": 6,
      "type": "SCALAR"
    },
    {
      "bufferView": 2,
      "byteOffset": 72,
      "componentType": 5126,
      "count": 432,
      "max": [
        317.921875,
        483.2606201171875,
        -3.5405309200286865
      ],
      "min": [
        44.204864501953125,
        -20.22955322265625,
        -26.431493759155273
      ],
      "type": "VEC3"
    },
    {
      "bufferView": 2,
      "byteOffset": 5256,
      "componentType": 5126,
      "count": 432,
      "type": "VEC3"
    },
    {
      "bufferView": 1,
      "componentType": 5126,
      "count": 432,
      "type": "VEC2"
    },
    {
      "bufferView": 0,
      "byteOffset": 24,
      "componentType": 5125,
      "count": 660,
      "type": "SCALAR"
    },
    {
      "bufferView": 2,
      "byteOffset": 10440,
      "componentType": 5126,
      "count": 2782,
      "max": [
        532.976806640625,
        466.98565673828125,
        10.902931213378906
      ],
      "min": [
        -23.474029541015625,
        -125.60292053222656,
        -64.97774505615234
      ],
      "type": "VEC3"
    },
    {
      "bufferView": 2,
      "byteOffset": 43824,
      "componentType": 5126,
      "count": 2782,
      "type": "VEC3"
    },
    {
      "bufferView": 1,
      "byteOffset": 3456,
      "componentType": 5126,
      "count": 2782,
      "type": "VEC2"
    },
    {
      "bufferView": 0,
      "byteOffset": 2664,
      "componentType": 5125,
      "count": 15045,
      "type": "SCALAR"
    },
    {
      "bufferView": 2,
      "byteOffset": 77208,
      "componentType": 5126,
      "count": 3785,
      "max": [
        663.376953125,
        531.9457397460938,
        90.33673858642578
      ],
      "min": [
        -45.720367431640625,
        -173.56690979003906,
        -64.97774505615234
      ],
      "type": "VEC3"
    },
    {
      "bufferView": 2,
      "byteOffset": 122628,
      "componentType": 5126,
      "count": 3785,
      "type": "VEC3"
    },
    {
      "bufferView": 3,
      "componentType": 5126,
      "count": 3785,
      "type": "VEC4"
    },
    {
      "bufferView": 1,
      "byteOffset": 25712,
      "componentType": 5126,
      "count": 3785,
      "type": "VEC2"
    },
    {
      "bufferView": 0,
      "byteOffset": 62844,
      "componentType": 5125,
      "count": 12456,
      "type": "SCALAR"
    },
    {
      "bufferView": 2,
      "byteOffset": 168048,
      "componentType": 5126,
      "count": 33,
      "max": [
        323.092041015625,
        264.74017333984375,
        -22.430042266845703
      ],
      "min": [
        114.07167053222656,
        52.381561279296875,
        -25.094276428222656
      ],
      "type": "VEC3"
    },
    {
      "bufferView": 2,
      "byteOffset": 168444,
      "componentType": 5126,
      "count": 33,
      "type": "VEC3"
    },
    {
      "bufferView": 1,
      "byteOffset": 55992,
      "componentType": 5126,
      "count": 33,
      "type": "VEC2"
    },
    {
      "bufferView": 0,
      "byteOffset": 112668,
      "componentType": 5125,
      "count": 81,
      "type": "SCALAR"
    },
    {
      "bufferView": 2,
      "byteOffset": 168840,
      "componentType": 5126,
      "count": 43,
      "max": [
        448.69122314453125,
        260.3468933105469,
        -23.127227783203125
      ],
      "min": [
        307.9068908691406,
        29.076644897460938,
        -57.049434661865234
      ],
      "type": "VEC3"
    },
    {
      "bufferView": 2,
      "byteOffset": 169356,
      "componentType": 5126,
      "count": 43,
      "type": "VEC3"
    },
    {
      "bufferView": 1,
      "byteOffset": 56256,
      "componentType": 5126,
      "count": 43,
      "type": "VEC2"
    },
    {
      "bufferView": 0,
      "byteOffset": 112992,
      "componentType": 5125,
      "count": 63,
      "type": "SCALAR"
    },
    {
      "bufferView": 2,
      "byteOffset": 169872,
      "componentType": 5126,
      "count": 14161,
      "max": [
        663.376953125,
        531.9457397460938,
        90.33673858642578
      ],
      "min": [
        -45.720367431640625,
        -173.56690979003906,
        -64.97774505615234
      ],
      "type": "VEC3"
    },
    {
      "bufferView": 2,
      "byteOffset": 339804,
      "componentType": 5126,
      "count": 14161,
      "type": "VEC3"
    },
    {
      "bufferView": 1,
      "byteOffset": 56600,
      "componentType": 5126,
      "count": 14161,
      "type": "VEC2"
    },
    {
      "bufferView": 0,
      "byteOffset": 113244,
      "componentType": 5125,
      "count": 41265,
      "type": "SCALAR"
    },
    {
      "bufferView": 2,
      "byteOffset": 509736,
      "componentType": 5126,
      "count": 5,
      "max": [
        319.450927734375,
        273.82781982421875,
        -22.429580688476563
      ],
      "min": [
        301.1118469238281,
        200.68824768066406,
        -38.26899719238281
      ],
      "type": "VEC3"
    },
    {
      "bufferView": 1,
      "byteOffset": 169888,
      "componentType": 5126,
      "count": 5,
      "type": "VEC2"
    },
    {
      "bufferView": 0,
      "byteOffset": 278304,
      "componentType": 5125,
      "count": 6,
      "type": "SCALAR"
    },
    {
      "bufferView": 2,
      "byteOffset": 509796,
      "componentType": 5126,
      "count": 11606,
      "max": [
        480.38311767578125,
        289.1708984375,
        -22.188312530517578
      ],
      "min": [
        103.44732666015625,
        10.483001708984375,
        -54.234886169433594
      ],
      "type": "VEC3"
    },
    {
      "bufferView": 2,
      "byteOffset": 649068,
      "componentType": 5126,
      "count": 11606,
      "type": "VEC3"
    },
    {
      "bufferView": 1,
      "byteOffset": 169928,
      "componentType": 5126,
      "count": 11606,
      "type": "VEC2"
    },
    {
      "bufferView": 0,
      "byteOffset": 278328,
      "componentType": 5125,
      "count": 40563,
      "type": "SCALAR"
    },
    {
      "bufferView": 2,
      "byteOffset": 788340,
      "componentType": 5126,
      "count": 9457,
      "max": [
        480.38311767578125,
        483.2606201171875,
        -3.5405349731445313
      ],
      "min": [
        44.204864501953125,
        -20.22955322265625,
        -54.23488998413086
      ],
      "type": "VEC3"
    },
    {
      "bufferView": 2,
      "byteOffset": 901824,
      "componentType": 5126,
      "count": 9457,
      "type": "VEC3"
    },
    {
      "bufferView": 1,
      "byteOffset": 262776,
      "componentType": 5126,
      "count": 9457,
      "type": "VEC2"
    },
    {
      "bufferView": 0,
      "byteOffset": 440580,
      "componentType": 5125,
      "count": 33549,
      "type": "SCALAR"
    },
    {
      "bufferView": 2,
      "byteOffset": 1015308,
      "componentType": 5126,
      "count": 26761,
      "max": [
        320.0347900390625,
        531.8123168945313,
        1.9370379447937012
      ],
      "min": [
        18.401519775390625,
        -40.828521728515625,
        -30.354660034179688
      ],
      "type": "VEC3"
    },
    {
      "bufferView": 2,
      "byteOffset": 1336440,
      "componentType": 5126,
      "count": 26761,
      "type": "VEC3"
    },
    {
      "bufferView": 1,
      "byteOffset": 338432,
      "componentType": 5126,
      "count": 26761,
      "type": "VEC2"
    },
    {
      "bufferView": 0,
      "byteOffset": 574776,
      "componentType": 5125,
      "count": 71715,
      "type": "SCALAR"
    },
    {
      "bufferView": 2,
      "byteOffset": 1657572,
      "componentType": 5126,
      "count": 10752,
      "max": [
        308.6761169433594,
        512.663818359375,
        -0.4137040078639984
      ],
      "min": [
        65.06011962890625,
        -11.682510375976563,
        -69.11676025390625
      ],
      "type": "VEC3"
    },
    {
      "bufferView": 2,
      "byteOffset": 1786596,
      "componentType": 5126,
      "count": 10752,
      "type": "VEC3"
    },
    {
      "bufferView": 1,
      "byteOffset": 552520,
      "componentType": 5126,
      "count": 10752,
      "type": "VEC2"
    },
    {
      "bufferView": 0,
      "byteOffset": 861636,
      "componentType": 5125,
      "count": 18816,
      "type": "SCALAR"
    }
  ],
  "asset": {
    "version": "2.0"
  },
  "bufferViews": [
    {
      "buffer": 0,
      "byteLength": 936900,
      "target": 34963
    },
    {
      "buffer": 0,
      "byteLength": 638536,
      "byteOffset": 936900,
      "byteStride": 8,
      "target": 34962
    },
    {
      "buffer": 0,
      "byteLength": 1915620,
      "byteOffset": 1575436,
      "byteStride": 12,
      "target": 34962
    },
    {
      "buffer": 0,
      "byteLength": 60560,
      "byteOffset": 3491056,
      "byteStride": 16,
      "target": 34962
    }
  ],
  "buffers": [
    {
      "byteLength": 3551616,
      "uri": "scene.bin"
    }
  ],
  "images": [
    {
      "uri": "textures/road_highway_material_BaseColor.jpeg"
    },
    {
      "uri": "textures/road_highway_material_ORM.jpeg"
    },
    {
      "uri": "textures/road_material_BaseColor.jpeg"
    },
    {
      "uri": "textures/road_turn_material_BaseColor.jpeg"
    },
    {
      "uri": "textures/desert_ground_material_BaseColor.jpeg"
    },
    {
      "uri": "textures/desert_ground_material_ORM.jpeg"
    },
    {
      "uri": "textures/mountains_material_BaseColor.jpeg"
    },
    {
      "uri": "textures/mountains_material_ORM.jpeg"
    },
    {
      "uri": "textures/mountains_material_Normal.jpeg"
    }
  ],
  "materials": [
    {
      "doubleSided": true,
      "name": "road_highway_material",
      "pbrMetallicRoughness": {
        "baseColorTexture": {
          "index": 0
        },
        "metallicFactor": 0.0,
        "metallicRoughnessTexture": {
          "index": 1
        }
      }
    },
    {
      "doubleSided": true,
      "name": "metal_material",
      "pbrMetallicRoughness": {
        "baseColorFactor": [
          0.225264996,
          0.225264996,
          0.225264996,
          1.0
        ],
        "metallicFactor": 0.0
      }
    },
    {
      "doubleSided": true,
      "name": "road_material",
      "pbrMetallicRoughness": {
        "baseColorTexture": {
          "index": 2
        },
        "metallicFactor": 0.0
      }
    },
    {
      "alphaMode": "BLEND",
      "doubleSided": true,
      "name": "material_0",
      "pbrMetallicRoughness": {
        "baseColorFactor": [
          1.0,
          1.0,
          1.0,
          0.0
        ],
        "metallicFactor": 0.0
      }
    },
    {
      "doubleSided": true,
      "name": "road_turn_material",
      "pbrMetallicRoughness": {
        "baseColorTexture": {
          "index": 3
        },
        "metallicFactor": 0.0
      }
    },
    {
      "doubleSided": true,
      "name": "desert_ground_material",
      "pbrMetallicRoughness": {
        "baseColorTexture": {
          "index": 4
        },
        "metallicFactor": 0.0,
        "metallicRoughnessTexture": {
          "index": 5
        }
      }
    },
    {
      "doubleSided": true,
      "name": "mountains_material",
      "normalTexture": {
        "index": 8
      },
      "pbrMetallicRoughness": {
        "baseColorTexture": {
          "index": 6
        },
        "metallicFactor": 0.0,
        "metallicRoughnessTexture": {
          "index": 7
        }
      }
    }
  ],
  "meshes": [
    {
      "name": "Object_0",
      "primitives": [
        {
          "attributes": {
            "POSITION": 0
          },
          "indices": 1,
          "material": 3,
          "mode": 1
        }
      ]
    },
    {
      "name": "Object_1",
      "primitives": [
        {
          "attributes": {
            "NORMAL": 3,
            "POSITION": 2,
            "TEXCOORD_0": 4
          },
          "indices": 5,
          "material": 0,
          "mode": 4
        }
      ]
    },
    {
      "name": "Object_2",
      "primitives": [
        {
          "attributes": {
            "NORMAL": 7,
            "POSITION": 6,
            "TEXCOORD_0": 8,
            "TEXCOORD_1": 8
          },
          "indices": 9,
          "material": 5,
          "mode": 4
        }
      ]
    },
    {
      "name": "Object_3",
      "primitives": [
        {
          "attributes": {
            "NORMAL": 11,
            "POSITION": 10,
            "TANGENT": 12,
            "TEXCOORD_0": 13
          },
          "indices": 14,
          "material": 6,
          "mode": 4
        }
      ]
    },
    {
      "name": "Object_4",
      "primitives": [
        {
          "attributes": {
            "NORMAL": 16,
            "POSITION": 15,
            "TEXCOORD_0": 17,
            "TEXCOORD_1": 17,
            "TEXCOORD_2": 17
          },
          "indices": 18,
          "material": 4,
          "mode": 4
        }
      ]
    },
    {
      "name": "Object_5",
      "primitives": [
        {
          "attributes": {
            "NORMAL": 20,
            "POSITION": 19,
            "TEXCOORD_0": 21
          },
          "indices": 22,
          "material": 3,
          "mode": 4
        }
      ]
    },
    {
      "name": "Object_6",
      "primitives": [
        {
          "attributes": {
            "NORMAL": 24,
            "POSITION": 23,
            "TEXCOORD_0": 25
          },
          "indices": 26,
          "material": 3,
          "mode": 4
        }
      ]
    },
    {
      "name": "Object_7",
      "primitives": [
        {
          "attributes": {
            "POSITION": 27,
            "TEXCOORD_0": 28,
            "TEXCOORD_1": 28
          },
          "indices": 29,
          "material": 2,
          "mode": 1
        }
      ]
    },
    {
      "name": "Object_8",
      "primitives": [
        {
          "attributes": {
            "NORMAL": 31,
            "POSITION": 30,
            "TEXCOORD_0": 32,
            "TEXCOORD_1": 32
          },
          "indices": 33,
          "material": 2,
          "mode": 4
        }
      ]
    },
    {
      "name": "Object_9",
      "primitives": [
        {
          "attributes": {
            "NORMAL": 35,
            "POSITION": 34,
            "TEXCOORD_0": 36,
            "TEXCOORD_1": 36
          },
          "indices": 37,
          "material": 2,
          "mode": 4
        }
      ]
    },
    {
      "name": "Object_10",
      "primitives": [
        {
          "attributes": {
            "NORMAL": 39,
            "POSITION": 38,
            "TEXCOORD_0": 40
          },
          "indices": 41,
          "material": 1,
          "mode": 4
        }
      ]
    },
    {
      "name": "Object_11",
      "primitives": [
        {
          "attributes": {
            "NORMAL": 43,
            "POSITION": 42,
            "TEXCOORD_0": 44
          },
          "indices": 45,
          "material": 1,
          "mode": 4
        }
      ]
    }
  ],
  "nodes": [
    {
      "children": [
        1
      ],
      "matrix": [
        1.0,
        0.0,
        0.0,
        0.0,
        0.0,
        2.220446049250313e-16,
        -1.0,
        0.0,
        0.0,
        1.0,
        2.220446049250313e-16,
        0.0,
        0.0,
        0.0,
        0.0,
        1.0
      ],
      "name": "Sketchfab_model"
    },
    {
      "children": [
        2,
        3,
        4,
        5,
        6,
        7,
        8,
        9,
        10,
        11,
        12,
        13
      ],
      "name": "race_track_landscape.obj.cleaner.materialmerger.gles"
    },
    {
      "mesh": 0,
      "name": "Object_2"
    },
    {
      "mesh": 1,
      "name": "Object_3"
    },
    {
      "mesh": 2,
      "name": "Object_4"
    },
    {
      "mesh": 3,
      "name": "Object_5"
    },
    {
      "mesh": 4,
      "name": "Object_6"
    },
    {
      "mesh": 5,
      "name": "Object_7"
    },
    {
      "mesh": 6,
      "name": "Object_8"
    },
    {
      "mesh": 7,
      "name": "Object_9"
    },
    {
      "mesh": 8,
      "name": "Object_10"
    },
    {
      "mesh": 9,
      "name": "Object_11"
    },
    {
      "mesh": 10,
      "name": "Object_12"
    },
    {
      "mesh": 11,
      "name": "Object_13"
    }
  ],
  "samplers": [
    {
      "magFilter": 9729,
      "minFilter": 9987,
      "wrapS": 10497,
      "wrapT": 10497
    }
  ],
  "scene": 0,
  "scenes": [
    {
      "name": "Sketchfab_Scene",
      "nodes": [
        0
      ]
    }
  ],
  "textures": [
    {
      "sampler": 0,
      "source": 0
    },
    {
      "sampler": 0,
      "source": 1
    },
    {
      "sampler": 0,
      "source": 2
    },
    {
      "sampler": 0,
      "source": 3
    },
    {
      "sampler": 0,
      "source": 4
    },
    {
      "sampler": 0,
      "source": 5
    },
    {
      "sampler": 0,
      "source": 6
    },
    {
      "sampler": 0,
      "source": 7
    },
    {
      "sampler": 0,
      "source": 8
    }
  ]
}
